<svg xmlns="http://www.w3.org/2000/svg" width="31" height="22" viewBox="0 0 31 22" fill="none">
  <path fill-rule="evenodd" clip-rule="evenodd" d="M0.167969 1C0.167969 0.447715 0.615685 0 1.16797 0H29.168C29.7203 0 30.168 0.447715 30.168 1C30.168 1.55228 29.7203 2 29.168 2H1.16797C0.615684 2 0.167969 1.55228 0.167969 1Z" fill="#56391F"/>
  <path fill-rule="evenodd" clip-rule="evenodd" d="M0.167969 11C0.167969 10.4477 0.615685 10 1.16797 10H29.168C29.7203 10 30.168 10.4477 30.168 11C30.168 11.5523 29.7203 12 29.168 12H1.16797C0.615684 12 0.167969 11.5523 0.167969 11Z" fill="#56391F"/>
  <path fill-rule="evenodd" clip-rule="evenodd" d="M0.167969 21C0.167969 20.4477 0.615685 20 1.16797 20H29.168C29.7203 20 30.168 20.4477 30.168 21C30.168 21.5523 29.7203 22 29.168 22H1.16797C0.615684 22 0.167969 21.5523 0.167969 21Z" fill="#56391F"/>
</svg>